<svg width="41" height="51" xmlns="http://www.w3.org/2000/svg" xmlns:xlink="http://www.w3.org/1999/xlink" xml:space="preserve" overflow="hidden"><defs><clipPath id="clip0"><rect x="1314" y="874" width="41" height="51"/></clipPath><clipPath id="clip1"><rect x="1318" y="874" width="38" height="36"/></clipPath><clipPath id="clip2"><rect x="1318" y="874" width="38" height="36"/></clipPath><clipPath id="clip3"><rect x="1318" y="874" width="38" height="36"/></clipPath></defs><g clip-path="url(#clip0)" transform="translate(-1314 -874)"><g clip-path="url(#clip1)"><g clip-path="url(#clip2)"><g clip-path="url(#clip3)"><path d="M22.6798 3.59997 13.3199 13.3199 9.71993 21.2398 6.83995 24.1198 12.9599 30.5998 15.8399 27.7198 24.1198 24.1198 33.4798 14.7599" stroke="#FF6600" stroke-width="2.76921" stroke-miterlimit="10" fill="#FFDAC1" transform="matrix(1.00001 0 0 1 1319 874)"/><path d="M16.9919 9.50393 27.7918 20.4478" stroke="#FF6600" stroke-width="2.76921" stroke-miterlimit="10" fill="none" transform="matrix(1.00001 0 0 1 1319 874)"/><path d="M13.1399 13.4999 23.9398 24.2998" stroke="#FF6600" stroke-width="2.76921" stroke-miterlimit="10" fill="none" transform="matrix(1.00001 0 0 1 1319 874)"/><path d="M8.13594 25.4878 3.77997 30.0598 9.17993 31.8598 11.6999 29.2678" stroke="#FF6600" stroke-width="2.76921" stroke-miterlimit="10" fill="#FFDAC1" transform="matrix(1.00001 0 0 1 1319 874)"/></g></g></g><path d="M1315.5 877.5 1315.5 907.784" stroke="#FF6600" stroke-width="3.4375" stroke-miterlimit="8" fill="none" fill-rule="evenodd"/></g></svg>