<svg width="30" height="42" xmlns="http://www.w3.org/2000/svg" xmlns:xlink="http://www.w3.org/1999/xlink" xml:space="preserve" overflow="hidden"><defs><clipPath id="clip0"><rect x="1314" y="984" width="30" height="42"/></clipPath><clipPath id="clip1"><rect x="1317" y="984" width="28" height="26"/></clipPath><clipPath id="clip2"><rect x="1317" y="984" width="28" height="26"/></clipPath><clipPath id="clip3"><rect x="1317" y="984" width="28" height="26"/></clipPath></defs><g clip-path="url(#clip0)" transform="translate(-1314 -984)"><g clip-path="url(#clip1)"><g clip-path="url(#clip2)"><g clip-path="url(#clip3)"><path d="M16.3799 2.59998 9.61992 9.61992 7.01994 15.3399 4.93996 17.4198 9.35992 22.0998 11.4399 20.0198 17.4198 17.4198 24.1798 10.6599" stroke="#FF6600" stroke-width="1.99998" stroke-miterlimit="10" fill="#FFDAC1" transform="matrix(1.00001 0 0 1 1318 984)"/><path d="M12.2719 6.86394 20.0718 14.7679" stroke="#FF6600" stroke-width="1.99998" stroke-miterlimit="10" fill="none" transform="matrix(1.00001 0 0 1 1318 984)"/><path d="M9.48992 9.74991 17.2898 17.5498" stroke="#FF6600" stroke-width="1.99998" stroke-miterlimit="10" fill="none" transform="matrix(1.00001 0 0 1 1318 984)"/><path d="M5.87595 18.4078 2.72998 21.7098 6.62994 23.0098 8.44993 21.1378" stroke="#FF6600" stroke-width="1.99998" stroke-miterlimit="10" fill="#FFDAC1" transform="matrix(1.00001 0 0 1 1318 984)"/></g></g></g><path d="M1315 986 1315 1007.81" stroke="#FF6600" stroke-width="2.29167" stroke-miterlimit="8" fill="none" fill-rule="evenodd"/></g></svg>