<svg width="58" height="63" xmlns="http://www.w3.org/2000/svg" xmlns:xlink="http://www.w3.org/1999/xlink" xml:space="preserve" overflow="hidden"><defs><clipPath id="clip0"><rect x="1313" y="739" width="58" height="63"/></clipPath><clipPath id="clip1"><rect x="1321" y="739" width="50" height="51"/></clipPath><clipPath id="clip2"><rect x="1321" y="739" width="50" height="51"/></clipPath><clipPath id="clip3"><rect x="1321" y="739" width="50" height="51"/></clipPath></defs><g clip-path="url(#clip0)" transform="translate(-1313 -739)"><g clip-path="url(#clip1)"><g clip-path="url(#clip2)"><g clip-path="url(#clip3)"><path d="M31.4999 4.99998 18.4999 18.4999 13.5 29.4999 9.49997 33.4999 17.9999 42.4999 21.9999 38.4999 33.4999 33.4999 46.4998 20.4999" stroke="#FF6600" stroke-width="3.84614" stroke-miterlimit="10" fill="#FFDAC1" transform="matrix(1 0 0 1.02 1321 739)"/><path d="M23.5999 13.2 38.5999 28.3999" stroke="#FF6600" stroke-width="3.84614" stroke-miterlimit="10" fill="none" transform="matrix(1 0 0 1.02 1321 739)"/><path d="M18.2499 18.7499 33.2499 33.7499" stroke="#FF6600" stroke-width="3.84614" stroke-miterlimit="10" fill="none" transform="matrix(1 0 0 1.02 1321 739)"/><path d="M11.3 35.3999 5.24998 41.7499 12.75 44.2499 16.2499 40.6499" stroke="#FF6600" stroke-width="3.84614" stroke-miterlimit="10" fill="#FFDAC1" transform="matrix(1 0 0 1.02 1321 739)"/></g></g></g><path d="M1315.5 743.5 1315.5 786.292" stroke="#FF6600" stroke-width="4.58333" stroke-miterlimit="8" fill="none" fill-rule="evenodd"/></g></svg>