<svg width="58" height="76" xmlns="http://www.w3.org/2000/svg" xmlns:xlink="http://www.w3.org/1999/xlink" xml:space="preserve" overflow="hidden"><defs><clipPath id="clip0"><rect x="2154" y="739" width="58" height="76"/></clipPath><clipPath id="clip1"><rect x="2161" y="739" width="52" height="51"/></clipPath><clipPath id="clip2"><rect x="2161" y="739" width="52" height="51"/></clipPath><clipPath id="clip3"><rect x="2161" y="739" width="52" height="51"/></clipPath></defs><g clip-path="url(#clip0)" transform="translate(-2154 -739)"><g clip-path="url(#clip1)"><g clip-path="url(#clip2)"><g clip-path="url(#clip3)"><path d="M31.5001 5.00002 18.5001 18.5001 13.5001 29.5001 9.50004 33.5001 18.0001 42.5002 22.0001 38.5002 33.5001 33.5001 46.5002 20.5001" stroke="#FF6600" stroke-width="3.84617" stroke-miterlimit="10" fill="#FFDAC1" transform="matrix(1 0 0 1.01999 2162 739)"/><path d="M23.6001 13.2001 38.6002 28.4001" stroke="#FF6600" stroke-width="3.84617" stroke-miterlimit="10" fill="none" transform="matrix(1 0 0 1.01999 2162 739)"/><path d="M18.2501 18.7501 33.2501 33.7501" stroke="#FF6600" stroke-width="3.84617" stroke-miterlimit="10" fill="none" transform="matrix(1 0 0 1.01999 2162 739)"/><path d="M11.3 35.4001 5.25002 41.7502 12.7501 44.2502 16.2501 40.6502" stroke="#FF6600" stroke-width="3.84617" stroke-miterlimit="10" fill="#FFDAC1" transform="matrix(1 0 0 1.01999 2162 739)"/></g></g></g><path d="M2157.5 743.5 2157.5 786.292" stroke="#FF6600" stroke-width="4.58333" stroke-miterlimit="8" fill="none" fill-rule="evenodd"/></g></svg>