<svg width="61" height="54" xmlns="http://www.w3.org/2000/svg" xmlns:xlink="http://www.w3.org/1999/xlink" xml:space="preserve" overflow="hidden"><defs><clipPath id="clip0"><rect x="1386" y="339" width="61" height="54"/></clipPath></defs><g clip-path="url(#clip0)" transform="translate(-1386 -339)"><path d="M1386 340.333C1386 339.597 1386.6 339 1387.33 339L1445.67 339C1446.4 339 1447 339.597 1447 340.333L1447 345.667C1447 346.403 1446.4 347 1445.67 347L1387.33 347C1386.6 347 1386 346.403 1386 345.667Z" fill="#717171" fill-rule="evenodd"/><path d="M1386 351C1386 350.448 1386.45 350 1387 350L1421 350C1421.55 350 1422 350.448 1422 351L1422 355C1422 355.552 1421.55 356 1421 356L1387 356C1386.45 356 1386 355.552 1386 355Z" fill="#E3E3E3" fill-rule="evenodd"/><path d="M1391 354 1388 354 1391 351Z" fill="#717171" fill-rule="evenodd"/><path d="M1396 359C1396 358.448 1396.45 358 1397 358L1430 358C1430.55 358 1431 358.448 1431 359L1431 363C1431 363.552 1430.55 364 1430 364L1397 364C1396.45 364 1396 363.552 1396 363Z" fill="#E3E3E3" fill-rule="evenodd"/><path d="M1400 363 1397 363 1400 359Z" fill="#717171" fill-rule="evenodd"/><path d="M1406 367.167C1406 366.522 1406.52 366 1407.17 366L1439.83 366C1440.48 366 1441 366.522 1441 367.167L1441 371.833C1441 372.478 1440.48 373 1439.83 373L1407.17 373C1406.52 373 1406 372.478 1406 371.833Z" fill="#E3E3E3" fill-rule="evenodd"/><path d="M1410 371 1407 371 1410 368Z" fill="#717171" fill-rule="evenodd"/><path d="M1416 378C1416 376.343 1417.34 375 1419 375L1443 375C1444.66 375 1446 376.343 1446 378L1446 390C1446 391.657 1444.66 393 1443 393L1419 393C1417.34 393 1416 391.657 1416 390Z" fill="#E3E3E3" fill-rule="evenodd"/></g></svg>