<?xml version="1.0" standalone="no"?>
<!DOCTYPE svg PUBLIC "-//W3C//DTD SVG 20010904//EN"
 "http://www.w3.org/TR/2001/REC-SVG-20010904/DTD/svg10.dtd">
<svg version="1.0" xmlns="http://www.w3.org/2000/svg"
 width="22px" height="22px" viewBox="0 0 129.000000 125.000000"
 preserveAspectRatio="xMidYMid meet">

<g transform="translate(0.000000,125.000000) scale(0.100000,-0.100000)"
fill="#ff6600" stroke="none">
<path d="M804 926 c-111 -114 -122 -130 -159 -217 -26 -62 -55 -110 -84 -141
-37 -40 -42 -50 -31 -63 14 -17 10 -23 -64 -102 -22 -24 -38 -44 -35 -46 2 -2
46 -18 97 -35 l94 -31 25 30 c24 29 26 29 45 13 18 -17 21 -16 66 28 34 34 75
58 149 89 99 43 107 48 220 161 l118 118 -23 22 -22 22 -61 -59 -61 -60 -109
115 c-59 63 -109 118 -109 121 0 3 25 33 55 66 52 57 53 61 36 77 -9 9 -20 16
-23 16 -3 0 -59 -56 -124 -124z m124 -199 l112 -113 -28 -27 -28 -27 -114 115
-114 114 24 26 c13 14 26 25 29 25 4 0 57 -51 119 -113z m-83 -237 c-47 -20
-98 -48 -113 -63 l-28 -27 -53 61 -53 60 31 33 c17 17 31 35 31 38 0 3 14 36
31 73 l32 67 103 -103 103 -103 -84 -36z m-165 -103 c0 -5 -7 -4 -15 3 -13 11
-19 9 -38 -8 -20 -19 -27 -20 -60 -10 l-38 12 37 37 c33 34 36 40 24 56 -8 10
9 -4 38 -32 29 -27 52 -53 52 -58z"/>
<path d="M230 655 l0 -365 50 0 50 0 0 365 0 365 -50 0 -50 0 0 -365z"/>
</g>
</svg>
