<svg width="30" height="25" xmlns="http://www.w3.org/2000/svg" xmlns:xlink="http://www.w3.org/1999/xlink" xml:space="preserve" overflow="hidden"><defs><clipPath id="clip0"><rect x="970" y="1075" width="30" height="25"/></clipPath><clipPath id="clip1"><rect x="973" y="1074" width="27" height="26"/></clipPath><clipPath id="clip2"><rect x="973" y="1074" width="27" height="26"/></clipPath><clipPath id="clip3"><rect x="973" y="1074" width="27" height="26"/></clipPath></defs><g clip-path="url(#clip0)" transform="translate(-970 -1075)"><g clip-path="url(#clip1)"><g clip-path="url(#clip2)"><g clip-path="url(#clip3)"><path d="M15.7501 2.50001 9.25004 9.25004 6.75003 14.7501 4.75002 16.7501 9.00004 21.2501 11 19.2501 16.7501 16.7501 23.2501 10.25" stroke="#FF6600" stroke-width="1.92308" stroke-miterlimit="10" fill="#FFDAC1" transform="matrix(1.04 0 0 1 974 1075)"/><path d="M11.8 6.60003 19.3001 14.2001" stroke="#FF6600" stroke-width="1.92308" stroke-miterlimit="10" fill="none" transform="matrix(1.04 0 0 1 974 1075)"/><path d="M9.12504 9.37504 16.6251 16.8751" stroke="#FF6600" stroke-width="1.92308" stroke-miterlimit="10" fill="none" transform="matrix(1.04 0 0 1 974 1075)"/><path d="M5.65002 17.7001 2.62501 20.8751 6.37503 22.1251 8.12503 20.3251" stroke="#FF6600" stroke-width="1.92308" stroke-miterlimit="10" fill="#FFDAC1" transform="matrix(1.04 0 0 1 974 1075)"/></g></g></g><path d="M971 1077 971 1098.81" stroke="#FF6600" stroke-width="2.29167" stroke-miterlimit="8" fill="none" fill-rule="evenodd"/></g></svg>