<svg width="266" height="43" xmlns="http://www.w3.org/2000/svg" xmlns:xlink="http://www.w3.org/1999/xlink" overflow="hidden"><defs><clipPath id="clip0"><rect x="362" y="52" width="266" height="43"/></clipPath></defs><g clip-path="url(#clip0)" transform="translate(-362 -52)"><path d="M439.956 81.315C438.262 81.315 436.568 81.315 434.875 81.315 434.664 81.315 434.381 81.3991 434.381 81.0184 434.381 80.6377 434.677 80.7454 434.881 80.7306 435.085 80.7158 435.309 80.7425 435.521 80.7188 436.378 80.7086 437.103 80.082 437.237 79.2354 437.301 78.8477 437.342 78.4564 437.359 78.0637 437.366 73.2122 437.366 68.3622 437.359 63.5134 437.359 63.4323 437.359 63.3493 437.354 63.2672 437.283 61.7018 436.729 61.1302 435.161 61.0027 434.997 61.013 434.833 61.0047 434.672 60.9779 434.561 60.9433 434.408 60.8079 434.409 60.7198 434.409 60.621 434.544 60.4815 434.653 60.4291 434.78 60.3972 434.913 60.3912 435.042 60.4113 437.475 60.4113 439.909 60.3787 442.341 60.4212 444.346 60.392 446.348 60.5783 448.313 60.977 450.283 61.3784 452.034 62.4955 453.229 64.1127 455.72 67.4081 456.163 71.8186 454.378 75.544 453.273 78.1322 451.014 80.0486 448.28 80.7158 446.806 81.1193 445.283 81.3189 443.754 81.3091 442.487 81.316 441.221 81.315 439.956 81.315ZM451.862 70.6787C451.928 68.37 451.157 66.1151 449.691 64.3302 448.683 63.1467 447.33 62.3071 445.822 61.9283 444.181 61.5604 442.479 61.5715 440.843 61.9609 440.535 61.9701 440.293 62.2271 440.302 62.5351 440.303 62.5647 440.306 62.5943 440.312 62.6234 440.332 64.4647 440.32 66.306 440.32 68.1492 440.32 71.8483 440.32 75.5479 440.32 79.2483 440.32 79.5628 440.32 79.8288 440.726 79.9049 442.393 80.3079 444.129 80.3288 445.804 79.9662 447.916 79.4151 449.694 77.9922 450.695 76.0523 451.542 74.392 451.944 72.5407 451.862 70.6788Z"/><path d="M511.715 71.2039C512.198 71.8763 512.636 72.5042 513.091 73.1193 514.456 74.9675 515.813 76.8216 517.199 78.657 518.096 79.8157 519.431 80.555 520.889 80.702 521.101 80.7316 521.384 80.7395 521.285 81.0441 521.182 81.1998 521.011 81.2969 520.825 81.3052 519.243 81.3249 517.667 81.3279 516.089 81.3052 515.856 81.283 515.642 81.1674 515.496 80.9848 513.391 78.1171 511.287 75.2374 509.223 72.3331 508.923 71.8069 508.344 71.5035 507.74 71.5559 506.47 71.6133 506.467 71.5727 506.469 72.8414 506.469 74.6016 506.469 76.3608 506.487 78.119 506.492 78.4938 506.571 78.8676 506.601 79.2443 506.719 80.1307 507.497 80.7784 508.39 80.7336 508.651 80.7514 508.919 80.7158 509.181 80.7554 509.28 80.7702 509.454 80.9403 509.439 81.0065 509.412 81.1242 509.276 81.2231 509.173 81.317 509.146 81.3418 509.074 81.3239 509.03 81.3239 506.35 81.3239 503.671 81.3239 500.99 81.3239 500.849 81.3338 500.709 81.2939 500.595 81.2112 500.419 81.0224 500.602 80.7731 500.909 80.7405 501.397 80.7186 501.883 80.6551 502.361 80.5507 502.906 80.4165 503.312 79.9592 503.38 79.4016 503.465 78.9169 503.516 78.4269 503.533 77.9351 503.54 73.1187 503.54 68.3022 503.533 63.4857 503.533 63.4363 503.533 63.3869 503.533 63.3374 503.479 61.7246 502.904 61.1263 501.296 61.0155 501.165 61.0285 501.034 61.0229 500.905 60.9987 500.781 60.9296 500.667 60.8427 500.568 60.7406 500.671 60.6234 500.79 60.5215 500.922 60.4381 501.05 60.4091 501.182 60.405 501.312 60.4262 503.367 60.4262 505.424 60.3817 507.477 60.439 509.084 60.4635 510.689 60.5827 512.282 60.796 514.176 61.0213 515.794 62.2654 516.499 64.0375 517.365 66.2128 516.573 68.697 514.609 69.9707 513.874 70.3599 513.114 70.7005 512.334 70.9903 512.142 71.0496 511.96 71.1109 511.715 71.2039ZM506.469 66.2417C506.469 67.5391 506.477 68.8365 506.462 70.1339 506.462 70.4741 506.566 70.6185 506.913 70.5888 507.743 70.5156 508.583 70.5008 509.404 70.3772 511.824 70.1204 513.578 67.9504 513.321 65.5304 513.319 65.5074 513.316 65.4845 513.313 65.4615 513.224 64.0365 512.377 62.769 511.095 62.1409 509.768 61.5889 508.298 61.4848 506.906 61.8442 506.554 61.8986 506.456 62.0578 506.461 62.3999 506.48 63.6796 506.468 64.9611 506.468 66.2417Z"/><path d="M607.281 69.6464C607.746 69.1935 608.198 68.7277 608.681 68.2926 609.586 67.3901 610.803 66.8694 612.081 66.838 613.668 66.7876 615.08 67.8417 615.482 69.3784 615.509 69.4674 615.542 69.5574 615.606 69.7472 615.857 69.4911 616.062 69.2924 616.256 69.0827 617.024 68.1548 618.027 67.4499 619.16 67.0417 621.044 66.3212 623.155 67.2642 623.876 69.148 624.016 69.516 624.097 69.9044 624.113 70.298 624.201 71.2138 624.229 72.1363 624.242 73.055 624.271 75.1099 624.294 77.1657 624.281 79.2206 624.286 80.0595 624.969 80.736 625.808 80.7318 625.813 80.7317 625.819 80.7317 625.824 80.7316 625.907 80.7366 626.013 80.7088 626.065 80.7494 626.164 80.8285 626.297 80.9472 626.295 81.0461 626.293 81.145 626.137 81.234 626.034 81.3071 625.991 81.3388 625.906 81.314 625.836 81.314 623.848 81.314 621.858 81.314 619.867 81.314 619.677 81.314 619.363 81.4001 619.424 81.055 619.446 80.9274 619.698 80.8038 619.869 80.7494 620.13 80.6663 620.416 80.6663 620.682 80.5922 621.231 80.4559 621.615 79.9596 621.607 79.3937 621.647 78.8003 621.662 78.207 621.657 77.6206 621.64 75.4026 621.622 73.1846 621.583 70.9645 621.546 68.9749 619.958 68.2768 618.209 68.8553 617.314 69.193 616.513 69.7391 615.872 70.4483 615.751 70.5967 615.687 70.7831 615.69 70.9744 615.685 73.5564 615.69 76.1363 615.703 78.7183 615.703 78.8982 615.708 79.0802 615.725 79.2602 615.725 80.0629 616.373 80.7152 617.175 80.7217 617.372 80.7217 617.569 80.7433 617.761 80.786 617.877 80.854 617.958 80.9685 617.984 81.1004 617.994 81.1479 617.827 81.2607 617.723 81.3042 617.626 81.3262 617.525 81.3303 617.427 81.316 615.436 81.316 613.447 81.316 611.458 81.316 611.359 81.3326 611.258 81.3293 611.161 81.3061 611.053 81.2366 610.953 81.1546 610.864 81.0619 610.955 80.963 611.031 80.8088 611.14 80.7811 611.471 80.695 611.823 80.6881 612.152 80.5942 612.738 80.4487 613.143 79.9125 613.122 79.3086 613.149 76.5961 613.168 73.8817 613.107 71.1712 613.191 70.0387 612.47 69.0024 611.379 68.6882 610.65 68.4962 609.875 68.6147 609.238 69.0155 608.58 69.4126 607.955 69.8613 607.369 70.3574 607.21 70.5159 607.12 70.7311 607.12 70.9557 607.112 73.4545 607.126 75.9544 607.137 78.4513 607.14 78.6651 607.153 78.8786 607.177 79.0911 607.315 80.2975 607.682 80.6485 608.893 80.7425 608.991 80.7504 609.116 80.7227 609.182 80.7721 609.289 80.8464 609.367 80.9559 609.401 81.0816 609.411 81.144 609.26 81.2498 609.165 81.3032 609.101 81.3378 609.004 81.3111 608.921 81.3111 606.947 81.3111 604.974 81.3111 603.002 81.3111 602.798 81.3111 602.487 81.4189 602.493 81.0372 602.5 80.697 602.776 80.7405 603.003 80.7296 603.792 80.786 604.477 80.1923 604.533 79.4035 604.536 79.3601 604.537 79.3165 604.537 79.273 604.593 78.4384 604.594 77.5989 604.591 76.7603 604.584 74.6896 604.563 72.617 604.544 70.5453 604.545 70.3467 604.53 70.1483 604.501 69.952 604.344 68.9917 603.945 68.7267 602.992 68.9354 602.911 68.9522 602.82 69.0016 602.753 68.9799 602.617 68.9374 602.418 68.881 602.389 68.7821 602.378 68.6366 602.444 68.496 602.564 68.4123 603.832 67.8753 605.102 67.3443 606.389 66.8518 606.938 66.6422 607.105 66.7925 607.106 67.3661 607.106 68.0978 607.106 68.8326 607.106 69.5643Z"/><path d="M559.579 79.8733C559.407 80.0117 559.282 80.1027 559.165 80.2105 558.017 81.3832 556.373 81.9282 554.752 81.673 553.391 81.4479 552.171 80.6999 551.353 79.5885 550.148 78.0222 549.61 76.0433 549.857 74.0824 549.995 72.1509 550.771 70.32 552.062 68.877 553.511 67.082 555.911 66.3566 558.112 67.0486 558.48 67.1834 558.831 67.3585 559.16 67.5708 559.298 67.6439 559.426 67.7309 559.571 67.819 559.62 67.7201 559.66 67.6766 559.66 67.637 559.625 65.9292 559.632 64.2204 559.532 62.5166 559.481 61.6266 559.082 61.4042 558.193 61.5278 558.08 61.5426 557.96 61.6069 557.858 61.5861 557.705 61.5415 557.558 61.4816 557.417 61.4071 557.503 61.2746 557.559 61.0768 557.68 61.0224 558.338 60.7258 559.009 60.4608 559.678 60.1879 560.224 59.9643 560.766 59.7349 561.32 59.5253 562.012 59.2662 562.221 59.4145 562.221 60.1354 562.221 64.8214 562.221 69.5073 562.221 74.1932 562.221 75.4926 562.244 76.7919 562.262 78.0903 562.259 78.3037 562.281 78.5166 562.326 78.7252 562.542 79.6261 562.987 79.8723 563.886 79.6152 564.007 79.565 564.137 79.542 564.268 79.5479 564.37 79.5841 564.446 79.6723 564.466 79.7793 564.459 79.9128 564.394 80.0368 564.289 80.1185 563.039 80.6555 561.791 81.1993 560.522 81.6839 559.87 81.9321 559.68 81.7482 559.677 81.0461 559.677 80.7336 559.677 80.4211 559.666 80.1106 559.646 80.0284 559.617 79.9487 559.579 79.8733ZM559.677 74.8913C559.677 73.8233 559.69 72.7554 559.677 71.6884 559.678 70.6629 559.33 69.6677 558.689 68.8671 557.897 67.8953 556.575 67.5352 555.4 67.9712 554.244 68.487 553.382 69.496 553.053 70.7183 552.647 72.0062 552.519 73.3654 552.676 74.7064 552.721 76.2633 553.34 77.7485 554.414 78.8765 555.599 80.2563 557.677 80.4145 559.057 79.2298 559.157 79.1438 559.252 79.052 559.341 78.9546 559.534 78.7457 559.649 78.4762 559.666 78.1922 559.696 77.0936 559.675 75.9929 559.675 74.8923Z"/><path d="M489.288 80.5289C489.26 80.7603 489.229 80.8879 489.229 81.0144 489.229 82.5412 489.229 84.071 489.252 85.5998 489.274 86.8745 489.664 87.2878 490.928 87.4539 491.059 87.4498 491.19 87.4632 491.317 87.4935 491.428 87.5449 491.571 87.6685 491.575 87.7645 491.579 87.8604 491.437 87.9889 491.329 88.0473 491.218 88.0768 491.102 88.0829 490.989 88.0651L484.875 88.0651C484.777 88.0826 484.676 88.0782 484.579 88.0522 484.455 87.9725 484.34 87.8807 484.235 87.7783 484.343 87.6794 484.438 87.5271 484.564 87.4945 485.014 87.4291 485.458 87.3262 485.891 87.187 486.184 87.0255 486.404 86.7586 486.507 86.4404 486.631 85.9634 486.687 85.4714 486.674 84.9788 486.684 80.3588 486.684 75.7395 486.674 71.1208 486.676 70.6775 486.635 70.2351 486.552 69.7996 486.49 69.2432 485.99 68.8417 485.433 68.9028 485.416 68.9047 485.4 68.907 485.383 68.9097 485.223 68.9428 485.06 68.9632 484.897 68.971 484.715 68.9317 484.537 68.8724 484.368 68.794 484.499 68.6733 484.607 68.5033 484.764 68.437 485.608 68.078 486.463 67.7448 487.316 67.4036 487.726 67.2385 488.129 67.0535 488.547 66.9092 489.042 66.7411 489.219 66.8746 489.22 67.3868 489.224 68.2214 489.22 69.055 489.22 69.8876L489.348 69.9351C489.437 69.7967 489.525 69.6572 489.616 69.5218 490.251 68.3765 491.269 67.4912 492.491 67.0209 494.339 66.4535 496.342 67.1366 497.458 68.7149 498.588 70.2908 499.129 72.2138 498.985 74.1477 498.972 76.0516 498.338 77.8992 497.18 79.4105 496.067 80.9401 494.26 81.8092 492.37 81.7244 491.227 81.7375 490.123 81.3093 489.288 80.5289ZM489.228 74.6263 489.26 74.6263C489.26 75.6943 489.235 76.7633 489.267 77.8313 489.249 79.0241 489.987 80.098 491.106 80.5101 492.279 81.0914 493.689 80.8811 494.642 79.9831 495.525 79.1048 496.064 77.9389 496.16 76.697 496.588 74.5286 496.163 72.2786 494.974 70.4158 494.351 69.4058 493.166 68.8901 492.002 69.1233 490.915 69.4108 489.966 70.0771 489.326 71.0022 489.24 71.1595 489.205 71.3402 489.227 71.5184 489.224 72.5546 489.228 73.591 489.228 74.6273Z"/><path d="M548.817 78.6738C548.729 78.9615 548.726 79.3334 548.539 79.5232 547.932 80.1375 547.286 80.7116 546.605 81.2419 546.326 81.4158 546.007 81.5124 545.679 81.5217 544.852 81.6779 544.054 81.1337 543.898 80.3062 543.884 80.2312 543.875 80.1552 543.872 80.0789 543.841 79.8743 543.824 79.6656 543.788 79.3551 543.512 79.542 543.303 79.6805 543.096 79.8258 542.331 80.4979 541.456 81.0332 540.509 81.408 538.785 82.0569 536.86 81.1849 536.212 79.4602 536.084 79.1222 536.013 78.7657 536 78.4048 535.872 76.8742 536.644 75.4084 537.978 74.6471 539.53 73.6946 541.183 72.9153 542.905 72.3233 543.095 72.2742 543.278 72.2004 543.449 72.1038 543.607 71.9781 543.819 71.7665 543.806 71.6093 543.755 70.8425 543.655 70.0796 543.51 69.325 543.352 68.6341 542.825 68.0871 542.141 67.904 541.16 67.5236 540.045 67.8258 539.391 68.6496 539.216 68.9922 539.112 69.3665 539.085 69.7502 539.024 70.119 539.072 70.5067 538.997 70.8706 538.897 71.4666 538.35 71.8817 537.749 71.8179 537.167 71.8059 536.678 71.3771 536.589 70.8014 536.413 69.6134 536.976 68.4375 538.012 67.8298 538.705 67.3217 539.521 67.008 540.376 66.9211 541.694 66.6833 543.051 66.8042 544.307 67.2711 545.403 67.6317 546.166 68.6289 546.227 69.7818 546.31 71.6696 546.331 73.5584 546.365 75.4461 546.385 76.4498 546.373 77.4525 546.392 78.4543 546.4 78.8607 546.382 79.3264 546.813 79.537 547.286 79.7685 547.66 79.4807 548 79.1672 548.198 78.9784 548.415 78.8004 548.623 78.6164ZM543.774 72.9611C543.409 73.0946 543.127 73.1796 542.861 73.2963 541.631 73.7088 540.489 74.3458 539.492 75.1751 538.783 75.8177 538.443 76.7716 538.584 77.7176 538.64 78.9128 539.654 79.8367 540.849 79.781 541.131 79.7678 541.407 79.6997 541.663 79.5806 542.299 79.2848 542.904 78.9253 543.468 78.5077 543.671 78.3333 543.793 78.0828 543.805 77.8154 543.835 76.3707 543.82 74.926 543.818 73.4812 543.824 73.3428 543.796 73.2024 543.776 72.9611Z"/><path d="M594.027 81.7403C591.444 81.8169 589.095 80.2505 588.173 77.8362 586.809 74.9849 587.234 71.6003 589.26 69.1747 591.557 66.4056 595.663 66.0225 598.432 68.319 598.841 68.6574 599.206 69.0444 599.52 69.4713 601.729 72.8005 601.293 77.2243 598.477 80.0582 597.253 81.1504 595.667 81.7498 594.027 81.7402ZM598.217 75.0872 598.089 75.0674C598.171 73.1202 597.673 71.1926 596.656 69.5297 596.039 68.4001 594.816 67.7376 593.532 67.8368 592.281 67.9174 591.2 68.7388 590.787 69.9223 589.76 73.0199 590.192 76.4161 591.961 79.1583 592.696 80.3023 594.073 80.8574 595.395 80.5427 596.564 80.3174 597.475 79.401 597.695 78.2318 597.941 77.1964 598.048 76.1353 598.217 75.0872Z"/><path d="M459.948 72.5349C459.781 75.3709 461.07 78.3267 463.991 79.0802 465.73 79.6454 467.624 78.8808 468.483 77.2666 468.668 76.9581 468.791 76.612 468.977 76.3044 469.052 76.1808 469.219 76.1067 469.342 76.0157 469.414 76.1779 469.582 76.3756 469.54 76.4953 469.265 77.3648 468.914 78.2083 468.491 79.0159 467.813 80.2782 466.637 81.1988 465.248 81.5544 463.506 82.0332 461.639 81.6194 460.262 80.4488 458.508 78.9474 457.566 76.7068 457.72 74.4038 457.682 72.9036 458.017 71.4174 458.695 70.0785 460.279 67.0815 463.993 65.9359 466.99 67.5199 467.06 67.5573 467.13 67.5959 467.199 67.636 468.567 68.4845 469.439 69.942 469.541 71.5479 469.652 72.5477 469.832 72.5101 468.7 72.5101 465.954 72.5101 463.209 72.5101 460.465 72.5101 460.295 72.5101 460.118 72.525 459.948 72.5349ZM463.106 71.6261 465.419 71.6261C466.453 71.6261 466.453 71.6261 466.328 70.5977 466.133 68.9368 464.629 67.7486 462.968 67.9438 462.525 67.9957 462.1 68.1445 461.722 68.3796 460.848 68.9253 460.239 69.8094 460.041 70.8211 459.852 71.6261 459.852 71.6261 460.691 71.6261Z"/><path d="M524.34 72.5082C524.197 75.366 525.44 78.2802 528.35 79.0703 530.083 79.6479 531.981 78.9043 532.86 77.3032 533.065 76.969 533.203 76.5942 533.401 76.255 533.466 76.1462 533.626 76.0948 533.743 76.0167 533.817 76.162 533.977 76.3292 533.948 76.4498 533.841 76.9787 533.68 77.4952 533.468 77.9914 532.872 79.5077 531.698 80.725 530.204 81.3753 527.935 82.221 525.38 81.533 523.842 79.6626 522.809 78.414 522.213 76.8615 522.146 75.2424 521.98 73.5004 522.292 71.7461 523.049 70.1685 524.591 67.1385 528.297 65.9323 531.327 67.4742 531.333 67.4773 531.339 67.4805 531.345 67.4837 532.698 68.2151 533.632 69.5361 533.871 71.0555 533.927 71.3284 533.952 71.6093 533.982 71.8872 534.048 72.4933 534.038 72.5072 533.44 72.5072 530.614 72.5072 527.787 72.5072 524.959 72.5072ZM527.513 71.6251 529.827 71.6251C530.853 71.6251 530.853 71.6251 530.725 70.5907 530.528 68.9318 529.023 67.7471 527.364 67.9447 526.936 67.9956 526.524 68.1375 526.155 68.3608 525.203 68.9691 524.555 69.9524 524.37 71.0664 524.271 71.4896 524.37 71.637 524.805 71.6301 525.708 71.6142 526.61 71.6261 527.513 71.6261Z"/><path d="M473.846 72.5082C473.68 75.3907 474.98 78.3297 477.89 79.0822 479.63 79.6459 481.523 78.8791 482.381 77.2636 482.578 76.9413 482.706 76.5823 482.898 76.2599 482.964 76.1492 483.122 76.0948 483.24 76.0157 483.313 76.1611 483.476 76.3282 483.447 76.4488 483.34 76.9782 483.179 77.4952 482.966 77.9915 482.372 79.509 481.198 80.7271 479.703 81.3754 477.417 82.2287 474.841 81.5246 473.308 79.627 472.171 78.2033 471.573 76.424 471.619 74.6026 471.554 73.037 471.888 71.4807 472.592 70.0805 474.176 67.0832 477.891 65.9381 480.888 67.5229 480.958 67.5599 481.027 67.5983 481.096 67.638 482.477 68.4984 483.352 69.9763 483.445 71.6004 483.543 72.5141 483.732 72.5141 482.645 72.5131 479.899 72.5098 477.153 72.5098 474.408 72.5131ZM477.018 71.6251 479.33 71.6251C480.337 71.6251 480.337 71.6251 480.229 70.6363 480.054 68.9737 478.564 67.7678 476.902 67.9428 476.441 67.9912 475.998 68.1447 475.606 68.3915 474.664 69.0154 474.029 70.0074 473.857 71.1238 473.771 71.5035 473.884 71.636 474.261 71.633 475.18 71.6172 476.098 71.6241 477.017 71.6251Z"/><path d="M573.313 73.7215C573.371 71.9961 574.022 70.3434 575.156 69.0422 577.112 66.762 580.4 66.1704 583.028 67.6261 583.773 68.0608 584.35 68.7348 584.664 69.5386 584.989 70.2054 584.711 71.0092 584.044 71.3337 584.011 71.3498 583.978 71.3646 583.943 71.3779 583.113 71.7146 582.166 71.3263 581.811 70.5037 581.734 70.2873 581.683 70.0626 581.658 69.8342 581.525 68.2274 580.442 67.6943 579.005 67.8892 577.592 68.11 576.466 69.1891 576.187 70.5918 575.338 73.0706 575.8 75.8103 577.413 77.8748 578.748 79.5554 581.193 79.8354 582.873 78.5004 583.144 78.2852 583.385 78.0349 583.589 77.7561 583.961 77.2399 584.232 76.6516 584.578 76.1136 584.652 75.9959 584.834 75.9455 584.967 75.8644 585.015 76.0048 585.129 76.161 585.099 76.2827 584.76 78.041 583.792 79.6158 582.377 80.7129 580.441 82.1262 577.794 82.0522 575.94 80.5329 574.415 79.269 573.493 77.4217 573.398 75.4431 573.351 74.8706 573.34 74.297 573.313 73.7215Z"/><path d="M570.996 80.8255C570.996 81.7469 570.249 82.4938 569.328 82.4938 568.407 82.4938 567.66 81.7469 567.66 80.8255 567.66 79.9042 568.407 79.1573 569.328 79.1573 570.249 79.1573 570.996 79.9042 570.996 80.8255Z" fill="#EE8336"/><path d="M569.328 78.9496C568.291 78.9863 567.48 79.8566 567.516 80.8936 567.553 81.9306 568.423 82.7416 569.46 82.705 570.471 82.6693 571.272 81.8399 571.273 80.8285 571.256 79.7735 570.386 78.9323 569.331 78.9496 569.33 78.9496 569.329 78.9496 569.328 78.9496ZM569.328 82.1022C568.623 82.0765 568.072 81.4841 568.098 80.7789 568.123 80.0738 568.716 79.5229 569.421 79.5486 570.108 79.5736 570.653 80.1386 570.652 80.8265 570.638 81.5444 570.046 82.1154 569.328 82.1022Z"/><path d="M377.791 58.4405 377.442 58.1231 377.442 54.131 389.825 54.131C389.707 54.2428 389.587 54.3595 389.466 54.4811 386.505 57.4773 383.21 63.5164 383.21 63.5164 382.697 62.9142 379.502 59.997 377.791 58.4405Z" fill="#FF6600"/><path d="M404.601 78.5185 386.673 87.8525 368.752 78.5185 377.446 78.5185 377.446 77.049 377.795 77.1638 385.02 79.5252C386.207 81.5949 389.653 79.3986 389.653 79.3986L389.693 78.2397 395.561 74.5462 395.911 74.3237 395.911 78.5175Z" fill="#FF6600"/><path d="M367.553 89.7511 404.892 89.7511 404.892 94.6519 367.553 94.6519Z" fill="#FF6600"/><path d="M392.595 57.3943C394.812 55.3602 397.518 53.2677 398.955 53.2124L398.955 53.9115 388.719 61.7048C389.883 60.1582 391.18 58.7159 392.595 57.3943ZM402.4 56.173 401.891 55.8625 403.876 68.9967 389.834 77.9628 389.12 62.8331C391.456 61.152 401.504 53.4299 401.504 53.4299L401.637 53.9649 402.267 54.0044 401.752 52.5894C401.752 52.5894 397.125 56.1998 395.444 57.5189 393.763 58.8381 388.336 62.755 388.336 62.755L388.354 62.4899C388.354 62.4899 396.63 56.2185 398.103 55.0536 398.599 54.5921 399.151 54.1935 399.745 53.867L399.804 53.6188 399.267 53.6939 399.366 52.6625C399.366 52.6625 397.857 53.157 395.775 54.039 393.694 54.9211 388.55 60.9957 387.596 62.3693 386.592 63.4778 385.28 64.2631 383.829 64.6259 383.486 64.6645 382.893 63.9564 382.893 63.9564L382.969 64.53 381.899 64.5853 381.958 64.7396 381.442 64.8158 381.442 65.1213C382.135 65.2544 382.839 65.3312 383.545 65.3507 385.666 65.3508 388.532 63.3423 388.532 63.3423L389.238 79.2443C388.595 79.8783 387.733 80.2405 386.83 80.256 386.518 80.253 386.209 80.2013 385.913 80.1027L380.64 65.1391 381.27 64.7376 380.545 64.6387C380.545 64.6387 366.058 58.2111 365.637 58.0835 365.345 58.0003 365.041 57.9668 364.738 57.9846L379.966 64.7564 384.648 79.3126 367.936 73.2963 363.845 57.5643 363.703 58.3881 367.39 73.6167 384.925 79.7734C385.471 80.2726 386.206 80.5107 386.94 80.426 387.969 80.3689 388.957 80.0033 389.775 79.3768L389.775 78.4394 404.472 69.1055ZM384.582 64.8078C385.635 64.35 387.623 63.1445 387.623 63.1445 387.843 63.91 384.582 64.8088 384.582 64.8088Z"/><path d="M402.301 55.5471 402.027 54.5285 401.753 54.8024Z"/><path d="M375.528 59.5995C377.845 60.797 382.581 63.7665 382.875 63.9505 382.703 63.8121 380.968 62.4514 376.674 59.7419 374.109 58.0808 371.309 56.8141 368.368 55.9842 370.099 55.7132 374.63 58.1824 377.586 59.8556 380.542 61.5287 383.46 63.5144 383.46 63.5144 383.46 63.5144 382.488 62.0182 378.13 58.4395 373.772 54.8608 371.753 55.1535 371.753 55.1535 375.849 56.7426 381.078 61.4586 381.238 61.6059 381.166 61.5644 380.176 60.9572 377.45 59.2326 375.001 57.8289 372.446 56.6195 369.808 55.6153L369.671 54.8974C370.15 54.8611 370.632 54.867 371.11 54.9152L371.129 54.664C370.502 54.588 369.869 54.588 369.243 54.664L369.321 55.6153C368.706 55.4839 368.07 55.4839 367.454 55.6153L367.435 55.8685C367.087 55.8185 366.733 55.8185 366.385 55.8685L366.696 56.9186C366.271 56.6939 365.788 56.6055 365.311 56.6655 364.573 56.7832 364.845 57.3073 364.845 57.3073 364.845 57.3073 372.466 60.6922 375.929 62.1695 379.172 63.554 381.572 64.4677 381.862 64.5745 379.939 63.5375 378.07 62.4038 376.262 61.1777 373.356 59.3904 370.274 57.9046 367.066 56.7436L366.833 56.1404C366.833 56.1404 367.008 56.1592 367.668 56.2759 370.373 57.1695 373.002 58.281 375.528 59.5995ZM375.815 61.5297C373.495 60.9651 365.512 57.156 365.512 57.156 368.348 56.889 375.596 61.3893 375.815 61.5287Z"/><path d="M383.463 63.5154C384.269 61.2086 385.46 59.0546 386.983 57.1441 388.063 55.7052 389.295 54.387 390.658 53.2123L390.658 53.6761C390.658 53.6761 386.244 57.8778 385.349 60.8326 385.349 60.8326 389.725 54.9409 394.197 52.7437L394.509 52.2373C394.509 52.2373 396.201 51.7904 396.511 52.5093L397.698 52.4312 397.698 53.3844 397.463 53.4833 397.385 52.7446C397.385 52.7446 395.285 52.7535 392.407 55.5481 389.53 58.3426 384.92 63.4007 384.92 63.4007 384.92 63.4007 385.908 61.068 389.821 57.4605 391.585 55.7179 393.52 54.1575 395.596 52.803 395.596 52.803 395.187 52.4717 394.293 53.0749 390.329 56.1679 386.699 59.6671 383.463 63.5154Z"/><path d="M391.472 52.8504C392.226 52.4872 393.02 52.2121 393.837 52.0307 392.961 51.8844 392.07 52.1931 391.472 52.8504Z"/><path d="M396.257 78.1694 396.257 74.1062 395.907 74.3257 395.557 74.5482 395.557 78.8706 403.171 78.8706 386.676 87.4589 370.182 78.8696 377.797 78.8696 377.797 77.1658 377.448 77.051 377.098 76.9363 377.098 78.1694 367.324 78.1694 386.519 88.164 386.679 88.248 406.037 78.1694ZM377.791 58.4405 377.791 54.485 389.466 54.485C389.587 54.3634 389.707 54.2467 389.825 54.135 389.944 54.0232 390.09 53.8937 390.221 53.7849L377.092 53.7849 377.092 57.8096C377.191 57.9006 377.308 58.0074 377.442 58.1271Z"/><path d="M405.242 95.001 367.203 95.001 367.203 89.401 405.242 89.401ZM367.903 94.3009 404.542 94.3009 404.542 90.1002 367.903 90.1002Z"/></g></svg>