<svg width="177" height="29" viewBox="0 0 358.592 58.721" xmlns="http://www.w3.org/2000/svg" xmlnsXlink="http://www.w3.org/1999/xlink" overflow="hidden"><g id="Group_800" transform="translate(-186.201 -298.87)"><g id="Group_788" transform="translate(282.713 308.985)"><g id="Group_786"><path d="M228.818 329C226.505 329 224.192 329 221.88 329 221.591 329 221.201 329.115 221.201 328.6 221.201 328.085 221.601 328.228 221.885 328.207 222.169 328.186 222.47 328.223 222.758 328.191 223.927 328.178 224.917 327.324 225.101 326.169 225.189 325.64 225.245 325.105 225.268 324.569 225.277 317.944 225.277 311.321 225.268 304.699 225.268 304.588 225.268 304.475 225.261 304.363 225.161 302.226 224.408 301.445 222.261 301.271 222.038 301.285 221.814 301.274 221.593 301.237 221.442 301.19 221.232 301.004 221.234 300.885 221.234 300.745 221.419 300.56 221.568 300.485 221.742 300.441 221.923 300.433 222.101 300.46 225.424 300.46 228.746 300.415 232.069 300.473 234.807 300.433 237.541 300.688 240.224 301.232 242.914 301.78 245.306 303.306 246.937 305.514 250.451 310.392 250.837 315.691 248.506 321.124 246.998 324.658 243.912 327.275 240.179 328.187 238.166 328.739 236.087 329.014 233.999 329.002 232.274 329 230.545 329 228.818 329ZM245.076 314.475C245.167 311.322 244.114 308.243 242.112 305.805 240.735 304.189 238.888 303.042 236.828 302.525 234.587 302.023 232.262 302.038 230.028 302.57 229.607 302.583 229.277 302.934 229.29 303.355 229.291 303.395 229.295 303.435 229.303 303.475 229.33 305.989 229.314 308.504 229.314 311.021 229.314 316.072 229.314 321.125 229.314 326.178 229.314 326.607 229.314 326.97 229.869 327.078 232.145 327.628 234.515 327.656 236.803 327.161 239.687 326.408 242.115 324.465 243.482 321.816 244.639 319.547 245.189 317.017 245.076 314.472Z" id="Path_2050" transform="translate(-221.2 -299.081)"/><path d="M276.507 315.193C277.166 316.112 277.764 316.969 278.385 317.809 280.249 320.332 282.102 322.865 283.994 325.366 285.22 326.948 287.042 327.958 289.034 328.158 289.323 328.199 289.709 328.21 289.578 328.625 289.438 328.838 289.205 328.97 288.951 328.982 286.795 329.009 284.64 329.014 282.484 328.982 282.167 328.951 281.875 328.793 281.676 328.544 278.8 324.621 275.929 320.696 273.11 316.73 272.699 316.01 271.905 315.595 271.079 315.669 269.346 315.748 269.341 315.691 269.343 317.418 269.343 319.818 269.343 322.223 269.368 324.625 269.375 325.137 269.483 325.648 269.524 326.162 269.684 327.372 270.747 328.257 271.966 328.196 272.323 328.221 272.688 328.171 273.04 328.225 273.18 328.245 273.412 328.478 273.392 328.568 273.356 328.728 273.169 328.868 273.029 328.992 272.993 329.026 272.9 329.001 272.829 329.001 269.17 329.001 265.511 329.001 261.85 329.001 261.656 329.016 261.462 328.962 261.304 328.848 261.065 328.591 261.315 328.248 261.733 328.205 262.4 328.175 263.063 328.088 263.715 327.945 264.46 327.762 265.015 327.138 265.108 326.376 265.224 325.715 265.294 325.047 265.318 324.376 265.327 317.799 265.325 311.221 265.311 304.644 265.311 304.576 265.311 304.508 265.311 304.444 265.236 302.244 264.451 301.424 262.255 301.273 262.077 301.291 261.898 301.284 261.722 301.251 261.552 301.157 261.397 301.038 261.262 300.899 261.403 300.739 261.565 300.6 261.745 300.486 261.92 300.446 262.101 300.441 262.278 300.47 265.086 300.47 267.894 300.409 270.697 300.488 272.892 300.522 275.083 300.685 277.259 300.976 279.845 301.284 282.055 302.982 283.017 305.402 284.199 308.372 283.119 311.763 280.437 313.502 279.433 314.034 278.396 314.499 277.331 314.895 277.089 314.984 276.841 315.067 276.507 315.193ZM269.343 308.417C269.343 310.189 269.354 311.961 269.334 313.733 269.334 314.198 269.476 314.394 269.95 314.354 271.083 314.254 272.23 314.234 273.35 314.065 276.655 313.715 279.049 310.752 278.699 307.447 278.695 307.415 278.692 307.384 278.688 307.352 278.566 305.406 277.41 303.675 275.659 302.817 273.815 301.876 271.881 302.108 269.939 302.411 269.458 302.485 269.323 302.702 269.33 303.169 269.358 304.919 269.342 306.668 269.342 308.417Z" id="Path_2051" transform="translate(-170.897 -299.978)"/><path d="M329.527 308.215C330.163 307.596 330.78 306.96 331.439 306.366 332.675 305.134 334.337 304.423 336.082 304.38 338.25 304.311 340.178 305.751 340.727 307.849 340.763 307.971 340.808 308.093 340.896 308.349 341.239 307.999 341.519 307.728 341.783 307.442 342.832 306.174 344.201 305.212 345.749 304.654 348.321 303.67 351.205 304.957 352.189 307.529 352.382 308.032 352.491 308.563 352.514 309.101 352.634 310.351 352.672 311.611 352.69 312.866 352.731 315.672 352.762 318.479 352.744 321.285 352.75 322.43 353.683 323.354 354.829 323.348 354.836 323.348 354.843 323.348 354.85 323.348 354.963 323.355 355.107 323.316 355.179 323.373 355.314 323.481 355.495 323.644 355.493 323.784 355.493 323.906 355.279 324.041 355.136 324.141 355.077 324.184 354.962 324.15 354.872 324.15 352.157 324.15 349.44 324.15 346.721 324.15 346.461 324.15 346.033 324.267 346.121 323.796 346.15 323.622 346.496 323.453 346.728 323.378 347.085 323.265 347.475 323.265 347.839 323.163 348.589 322.977 349.112 322.3 349.103 321.527 349.157 320.721 349.178 319.913 349.171 319.105 349.148 316.076 349.124 313.047 349.071 310.016 349.021 307.298 346.852 306.346 344.464 307.136 343.242 307.597 342.148 308.343 341.272 309.312 341.107 309.514 341.019 309.769 341.024 310.03 341.017 313.556 341.031 317.079 341.042 320.605 341.042 320.851 341.049 321.099 341.071 321.345 341.071 322.438 341.948 323.329 343.041 323.345 343.31 323.345 343.578 323.375 343.841 323.433 343.997 323.527 344.107 323.683 344.141 323.862 344.155 323.927 343.927 324.081 343.784 324.14 343.653 324.169 343.517 324.175 343.384 324.156 340.667 324.156 337.95 324.156 335.233 324.156 335.1 324.178 334.964 324.174 334.833 324.143 334.687 324.048 334.553 323.936 334.433 323.809 334.557 323.676 334.661 323.464 334.81 323.425 335.262 323.308 335.742 323.299 336.191 323.17 336.99 322.972 337.542 322.243 337.516 321.421 337.552 317.721 337.579 314.011 337.496 310.309 337.61 308.763 336.625 307.348 335.135 306.919 334.141 306.657 333.082 306.819 332.212 307.366 331.314 307.908 330.46 308.521 329.659 309.199 329.442 309.415 329.319 309.709 329.318 310.016 329.307 313.429 329.327 316.842 329.343 320.252 329.346 320.544 329.364 320.836 329.397 321.126 329.587 322.774 330.088 323.252 331.74 323.381 331.875 323.392 332.04 323.354 332.14 323.422 332.287 323.523 332.393 323.672 332.44 323.844 332.454 323.93 332.248 324.074 332.117 324.144 332.031 324.191 331.898 324.155 331.785 324.155 329.09 324.155 326.395 324.155 323.702 324.155 323.424 324.155 323.002 324.302 323.002 323.78 323.011 323.315 323.39 323.374 323.702 323.36 324.779 323.438 325.715 322.627 325.792 321.55 325.797 321.491 325.798 321.431 325.797 321.371 325.874 320.231 325.876 319.085 325.871 317.94 325.862 315.112 325.833 312.281 325.806 309.453 325.807 309.185 325.787 308.918 325.747 308.653 325.533 307.342 324.989 306.98 323.686 307.265 323.575 307.288 323.451 307.355 323.359 307.326 323.174 307.267 322.903 307.188 322.859 307.057 322.843 306.858 322.934 306.665 323.098 306.551 324.829 305.817 326.565 305.093 328.321 304.42 329.07 304.133 329.298 304.339 329.301 305.12 329.301 306.12 329.301 307.12 329.301 308.12Z" id="Path_2052" transform="translate(-93.414 -294.239)"/><path d="M304.366 327.784C304.131 327.974 303.957 328.098 303.802 328.244 302.235 329.847 299.989 330.592 297.775 330.244 295.916 329.937 294.251 328.915 293.134 327.398 291.489 325.259 290.754 322.557 291.091 319.88 291.28 317.243 292.339 314.742 294.102 312.772 296.08 310.32 299.357 309.328 302.363 310.272 302.865 310.456 303.345 310.695 303.794 310.985 303.981 311.085 304.158 311.204 304.354 311.324 304.422 311.189 304.476 311.13 304.476 311.076 304.429 308.744 304.438 306.41 304.302 304.083 304.232 302.871 303.688 302.564 302.474 302.733 302.318 302.753 302.156 302.841 302.016 302.812 301.808 302.751 301.607 302.669 301.416 302.568 301.533 302.387 301.61 302.117 301.775 302.042 302.675 301.636 303.59 301.275 304.504 300.902 305.249 300.602 305.992 300.284 306.745 299.997 307.684 299.643 307.975 299.846 307.975 300.83 307.975 307.23 307.975 313.63 307.975 320.03 307.975 321.804 308.007 323.578 308.031 325.352 308.027 325.643 308.056 325.934 308.117 326.219 308.417 327.449 309.017 327.785 310.248 327.438 310.413 327.369 310.591 327.338 310.769 327.346 310.908 327.396 311.009 327.517 311.035 327.662 311.026 327.844 310.938 328.014 310.793 328.125 309.087 328.859 307.383 329.601 305.649 330.263 304.76 330.602 304.5 330.351 304.496 329.392 304.496 328.965 304.496 328.539 304.48 328.114 304.455 328 304.417 327.889 304.366 327.784ZM304.497 320.984C304.497 319.526 304.515 318.068 304.497 316.61 304.499 315.21 304.024 313.851 303.149 312.757 302.068 311.43 300.262 310.939 298.657 311.534 297.078 312.238 295.901 313.616 295.452 315.285 294.898 317.044 294.722 318.9 294.937 320.732 294.998 322.858 295.843 324.886 297.309 326.427 298.93 328.311 301.771 328.525 303.655 326.904 303.79 326.788 303.918 326.664 304.038 326.533 304.302 326.248 304.458 325.88 304.481 325.492 304.527 323.987 304.5 322.484 304.5 320.981Z" id="Path_2053" transform="translate(-133.394 -299.836)"/><path d="M258.262 323.038C258.224 323.354 258.183 323.528 258.183 323.702 258.183 325.788 258.183 327.875 258.215 329.963 258.244 331.703 258.777 332.263 260.504 332.495 260.682 332.489 260.861 332.508 261.034 332.549 261.185 332.619 261.382 332.788 261.386 332.919 261.39 333.05 261.196 333.226 261.05 333.305 260.898 333.346 260.74 333.354 260.585 333.33L252.236 333.33C252.103 333.353 251.966 333.347 251.836 333.312 251.667 333.203 251.51 333.077 251.366 332.937 251.515 332.804 251.644 332.594 251.815 332.549 252.43 332.46 253.036 332.319 253.627 332.129 254.027 331.908 254.328 331.544 254.469 331.109 254.638 330.456 254.715 329.783 254.697 329.109 254.71 322.8 254.71 316.492 254.697 310.185 254.699 309.581 254.643 308.978 254.53 308.385 254.444 307.625 253.759 307.079 252.999 307.165 252.976 307.168 252.953 307.171 252.93 307.175 252.711 307.22 252.489 307.248 252.266 307.258 252.017 307.204 251.775 307.123 251.544 307.016 251.722 306.851 251.871 306.616 252.083 306.529 253.236 306.039 254.403 305.585 255.568 305.118 256.128 304.892 256.679 304.639 257.25 304.445 257.923 304.215 258.166 304.398 258.169 305.097 258.176 306.237 258.169 307.375 258.169 308.512L258.345 308.577C258.467 308.387 258.587 308.198 258.711 308.013 259.578 306.449 260.967 305.24 262.636 304.598 265.159 303.823 267.895 304.757 269.419 306.912 270.963 309.064 271.701 311.69 271.505 314.331 271.487 316.931 270.622 319.454 269.04 321.518 267.519 323.606 265.053 324.793 262.472 324.678 260.91 324.694 259.402 324.107 258.262 323.038ZM258.181 314.978 258.224 314.978C258.224 316.436 258.19 317.896 258.233 319.355 258.209 320.984 259.216 322.451 260.745 323.014 262.346 323.808 264.273 323.521 265.573 322.294 266.779 321.095 267.515 319.503 267.647 317.807 268.035 314.778 267.847 311.837 266.029 309.23 265.179 307.851 263.56 307.147 261.971 307.465 260.314 307.727 259.344 308.912 258.317 310.031 258.201 310.245 258.156 310.49 258.186 310.731 258.174 312.148 258.18 313.563 258.18 314.978Z" id="Path_2054" transform="translate(-183.277 -294.194)"/><path d="M300.2 320.517C300.08 320.91 300.076 321.417 299.821 321.677 298.993 322.516 298.11 323.3 297.18 324.024 296.8 324.261 296.364 324.393 295.916 324.406 294.786 324.619 293.697 323.876 293.484 322.747 293.464 322.644 293.453 322.54 293.449 322.436 293.406 322.156 293.384 321.872 293.334 321.447 292.957 321.702 292.67 321.892 292.388 322.09 291.343 323.007 290.149 323.737 288.856 324.248 285.427 325.21 282.935 323.124 282.698 320.148 282.522 318.057 283.575 316.053 285.398 315.013 287.518 313.712 289.775 312.648 292.127 311.839 292.387 311.772 292.637 311.671 292.87 311.539 293.087 311.367 293.376 311.079 293.358 310.86 293.289 309.813 293.156 308.771 292.958 307.74 292.743 306.796 292.024 306.049 291.089 305.799 289.749 305.279 288.227 305.692 287.333 306.817 287.094 307.284 286.952 307.794 286.915 308.317 286.831 308.817 286.897 309.351 286.795 309.847 286.658 310.659 285.914 311.225 285.095 311.14 284.3 311.124 283.631 310.538 283.511 309.752 283.186 307.937 284.125 306.714 285.454 305.694 286.4 305 287.515 304.572 288.682 304.453 290.482 304.129 292.336 304.294 294.05 304.932 295.548 305.424 296.589 306.786 296.673 308.36 296.786 310.938 296.815 313.518 296.863 316.095 296.89 317.465 296.874 318.835 296.899 320.203 296.91 320.758 296.886 321.395 297.475 321.681 298.121 321.997 298.631 321.604 299.093 321.175 299.368 320.918 299.66 320.675 299.944 320.423ZM293.316 312.717C292.816 312.9 292.433 313.017 292.07 313.175 290.391 313.738 288.831 314.607 287.47 315.739 286.503 316.617 286.038 317.919 286.231 319.211 286.5 321.073 288.143 322.748 290.436 321.755 291.305 321.351 292.131 320.86 292.901 320.29 293.177 320.053 293.344 319.714 293.362 319.351 293.403 317.378 293.382 315.406 293.38 313.433 293.374 313.238 293.34 313.046 293.311 312.717Z" id="Path_2055" transform="translate(-143.919 -294.208)"/><path d="M322.844 324.7C319.316 324.805 316.108 322.666 314.849 319.369 312.986 315.476 313.565 310.855 316.33 307.542 319.768 303.023 327.011 303.36 330.34 307.953 333.617 312.472 332.45 319.053 328.916 322.41 327.245 323.897 325.081 324.713 322.844 324.7ZM328.566 315.615 328.392 315.588C328.505 312.927 327.824 310.292 326.435 308.02 325.591 306.478 323.922 305.573 322.169 305.709 320.46 305.819 318.984 306.941 318.42 308.558 317.017 312.788 317.605 317.426 320.02 321.171 321.025 322.731 322.905 323.487 324.71 323.056 326.305 322.748 327.551 321.497 327.85 319.9 328.189 318.491 328.336 317.042 328.566 315.611Z" id="Path_2056" transform="translate(-104.831 -294.2)"/><path d="M238.365 312.143C238.137 316.016 239.898 320.052 243.886 321.081 246.261 321.853 248.847 320.809 250.021 318.605 250.274 318.183 250.441 317.711 250.694 317.291 250.794 317.122 251.024 317.025 251.194 316.896 251.294 317.117 251.521 317.388 251.463 317.551 251.088 318.738 250.608 319.89 250.03 320.993 249.103 322.717 247.497 323.974 245.601 324.46 243.221 325.114 240.672 324.549 238.791 322.95 236.209 320.812 235.306 317.937 235.324 314.696 235.273 312.647 235.73 310.618 236.656 308.789 238.817 304.695 243.888 303.129 247.982 305.29 248.081 305.342 248.179 305.397 248.276 305.453 250.144 306.611 251.337 308.602 251.476 310.796 251.627 312.162 251.876 312.11 250.327 312.11 246.578 312.11 242.829 312.11 239.082 312.11 238.839 312.109 238.6 312.132 238.365 312.143ZM242.676 310.901 245.836 310.901C247.247 310.901 247.247 310.901 247.077 309.501 246.811 307.233 244.756 305.61 242.488 305.876 241.884 305.947 241.303 306.151 240.786 306.472 239.597 307.218 238.769 308.422 238.5 309.8 238.243 310.9 238.243 310.9 239.387 310.9Z" id="Path_2057" transform="translate(-203.447 -294.217)"/><path d="M277.316 312.1C277.116 316 278.816 319.982 282.792 321.061 285.159 321.851 287.751 320.835 288.952 318.648 289.232 318.192 289.419 317.68 289.69 317.217 289.778 317.068 289.997 316.998 290.157 316.892 290.257 317.092 290.475 317.319 290.437 317.483 290.29 318.206 290.07 318.911 289.78 319.589 288.966 321.659 287.363 323.321 285.324 324.209 282.226 325.364 278.736 324.425 276.636 321.871 275.226 320.166 274.412 318.046 274.32 315.835 274.093 313.456 274.519 311.061 275.552 308.906 277.658 304.769 282.72 303.122 286.857 305.229 286.865 305.233 286.873 305.237 286.881 305.241 288.729 306.24 290.004 308.044 290.33 310.119 290.407 310.491 290.441 310.875 290.481 311.254 290.571 312.082 290.558 312.1 289.741 312.1 285.881 312.1 282.021 312.1 278.16 312.1ZM281.648 310.895 284.808 310.895C286.208 310.895 286.208 310.895 286.036 309.482 285.766 307.217 283.71 305.599 281.445 305.869 280.861 305.939 280.298 306.132 279.795 306.437 278.494 307.269 277.608 308.614 277.357 310.137 277.222 310.715 277.357 310.916 277.951 310.907 279.182 310.883 280.415 310.9 281.647 310.9Z" id="Path_2058" transform="translate(-154.464 -294.214)"/><path d="M246.772 312.107C246.546 316.044 248.32 320.057 252.295 321.084 254.671 321.854 257.257 320.807 258.428 318.601 258.692 318.161 258.873 317.671 259.134 317.231 259.224 317.08 259.441 317.005 259.601 316.897 259.701 317.097 259.924 317.324 259.883 317.488 259.737 318.211 259.517 318.917 259.226 319.594 258.415 321.666 256.811 323.329 254.77 324.214 251.648 325.379 248.131 324.417 246.037 321.826 244.484 319.882 243.667 317.452 243.73 314.964 243.641 312.826 244.098 310.7 245.059 308.788 247.221 304.694 252.293 303.128 256.387 305.29 256.485 305.342 256.583 305.396 256.679 305.452 258.564 306.627 259.76 308.645 259.886 310.862 260.017 312.11 260.279 312.11 258.793 312.108 255.044 312.103 251.295 312.103 247.546 312.108ZM251.1 310.9 254.258 310.9C255.633 310.9 255.633 310.9 255.486 309.543 255.247 307.273 253.214 305.626 250.944 305.865 250.314 305.931 249.708 306.141 249.173 306.478 247.887 307.33 247.02 308.685 246.785 310.209 246.668 310.728 246.821 310.909 247.336 310.909 248.593 310.89 249.848 310.9 251.1 310.9Z" id="Path_2059" transform="translate(-192.876 -294.217)"/><path d="M305.256 313.749C305.335 311.393 306.224 309.136 307.773 307.359 310.443 304.245 314.934 303.437 318.522 305.425 319.54 306.019 320.328 306.939 320.757 308.037 321.201 308.947 320.823 310.044 319.913 310.488 319.867 310.51 319.82 310.531 319.773 310.549 318.639 311.01 317.345 310.479 316.861 309.355 316.756 309.06 316.685 308.753 316.651 308.441 316.468 306.247 314.99 305.518 313.028 305.784 310.877 306.075 309.755 307.596 309.18 309.474 308.022 312.859 308.652 316.6 310.855 319.419 312.678 321.714 316.017 322.096 318.311 320.273 318.681 319.979 319.011 319.637 319.29 319.256 319.798 318.556 320.168 317.748 320.635 317.012 320.735 316.852 320.985 316.782 321.165 316.671 321.231 316.863 321.386 317.071 321.346 317.242 320.883 319.643 319.561 321.793 317.629 323.291 314.985 325.221 311.372 325.12 308.84 323.045 306.758 321.319 305.498 318.797 305.369 316.095 305.308 315.315 305.292 314.532 305.256 313.749Z" id="Path_2060" transform="translate(-115.529 -294.2)"/></g><g id="Group_787" transform="translate(181.63 26.686)"><circle cx="2.278" cy="2.278" r="2.278" id="Ellipse_306" fill="#EE8336" transform="translate(0.376 0.283)"/><path d="M304.323 311.659C302.908 311.71 301.802 312.899 301.854 314.314 301.905 315.729 303.094 316.835 304.509 316.784 305.888 316.734 306.98 315.601 306.98 314.221 306.955 312.781 305.767 311.634 304.327 311.659 304.326 311.659 304.324 311.659 304.323 311.659ZM304.323 315.959C303.36 315.924 302.607 315.115 302.642 314.152 302.677 313.189 303.486 312.436 304.449 312.471 305.388 312.505 306.132 313.277 306.131 314.217 306.115 315.198 305.306 315.979 304.326 315.963 304.325 315.963 304.324 315.963 304.323 315.963Z" id="Path_2061" transform="translate(-301.669 -311.659)"/></g></g><g id="Group_799" transform="translate(186.201 298.87)"><g id="Group_789" transform="translate(6.888 2.908)"><path d="M186.482 299.2C186.311 299.043 186.153 298.9 186.006 298.766L186.006 293.314 202.917 293.314C202.754 293.467 202.592 293.625 202.427 293.792 198.383 297.884 193.883 306.131 193.883 306.131 193.182 305.318 188.818 301.328 186.482 299.2Z" id="Path_2062" fill="#FF6600" transform="translate(-174.134 -293.317)"/><path d="M229.056 312.772 204.574 325.518 180.1 312.772 191.972 312.772 191.972 310.772 192.448 310.929 202.316 314.153C203.931 316.98 208.642 313.98 208.642 313.98L208.696 312.397 216.709 307.353 217.187 307.053 217.187 312.78Z" id="Path_2063" fill="#FF6600" transform="translate(-180.096 -279.467)"/></g><g id="Group_790" transform="translate(5.258 51.55)"><rect x="0" y="0" width="50.989" height="6.692" id="Rectangle_2887" fill="#FF6600"/></g><g id="Group_796"><g id="Group_791" transform="matrix(1 0 0 1 0 0.806)"><path d="M216.121 298.83C219.148 296.052 222.843 293.195 224.805 293.119L224.805 294.073 210.827 304.716C212.417 302.604 214.189 300.635 216.121 298.83ZM229.51 297.163 228.81 296.739 231.522 314.674 212.343 326.918 211.369 306.259C214.559 303.959 228.28 293.418 228.28 293.418L228.463 294.149 229.323 294.203 228.623 292.27C228.623 292.27 222.305 297.2 220.009 299.002 217.713 300.804 210.302 306.152 210.302 306.152L210.326 305.79C210.326 305.79 221.626 297.226 223.639 295.635 224.317 295.006 225.07 294.463 225.881 294.018L225.961 293.678 225.228 293.778 225.359 292.37C225.359 292.37 223.298 293.049 220.459 294.25 217.62 295.451 210.591 303.75 209.29 305.626 207.989 307.502 204.617 308.653 204.145 308.708 203.673 308.763 202.867 307.794 202.867 307.794L202.967 308.578 201.505 308.654 201.585 308.865 200.88 308.965 200.88 309.383C201.828 309.565 202.788 309.669 203.753 309.696 206.653 309.696 210.563 306.954 210.563 306.954L211.527 328.67C210.649 329.536 209.471 330.031 208.238 330.052 207.812 330.048 207.39 329.978 206.986 329.843L199.786 309.409 200.646 308.861 199.656 308.73C199.656 308.73 179.873 299.959 179.298 299.778 178.899 299.666 178.484 299.621 178.071 299.647L198.865 308.894 205.257 328.772 182.438 320.556 176.859 299.056 176.666 300.181 181.7 320.981 205.646 329.388C206.39 330.07 207.393 330.395 208.396 330.28 209.801 330.202 211.15 329.703 212.267 328.848L212.267 327.568 232.338 314.822ZM205.178 308.955C206.614 308.33 209.33 306.683 209.33 306.683 209.631 307.727 205.179 308.955 205.179 308.955Z" id="Path_2064" transform="translate(-176.667 -292.271)"/></g><g id="Group_792" transform="translate(51.961 3.452)"><path d="M203.28 294.979 202.906 293.588 202.532 293.962Z" id="Path_2065" transform="translate(-202.533 -293.588)"/></g><g id="Group_793" transform="translate(1.5 3.56)"><path d="M192.061 300.458C195.225 302.093 201.692 306.149 202.093 306.402 201.86 306.213 199.493 304.355 193.626 300.655 190.124 298.388 186.301 296.66 182.286 295.528 184.65 295.158 190.838 298.528 194.874 300.815 198.91 303.102 202.896 305.805 202.896 305.805 202.896 305.805 201.568 303.762 195.618 298.874 189.668 293.986 186.909 294.386 186.909 294.386 192.502 296.556 199.643 302.996 199.862 303.197 199.762 303.141 198.412 302.311 194.689 299.963 191.345 298.046 187.855 296.394 184.253 295.023L184.066 294.043C184.72 293.993 185.378 294.001 186.031 294.067L186.057 293.724C185.202 293.62 184.337 293.62 183.482 293.724L183.588 295.024C182.748 294.844 181.879 294.844 181.039 295.024L181.013 295.37C180.537 295.302 180.055 295.302 179.579 295.37L180 296.8C179.422 296.494 178.765 296.373 178.116 296.454 177.107 296.615 177.479 297.33 177.479 297.33 177.479 297.33 187.887 301.952 192.616 303.969 197.046 305.861 200.322 307.107 200.716 307.254 198.09 305.838 195.537 304.289 193.068 302.615 189.098 300.174 184.89 298.145 180.508 296.56L180.191 295.736C180.191 295.736 180.43 295.762 181.33 295.921 182.686 296.141 188.795 298.769 192.061 300.458ZM192.453 303.094C189.285 302.323 178.383 297.122 178.383 297.122 182.252 296.758 192.153 302.905 192.453 303.094Z" id="Path_2066" transform="translate(-177.414 -293.642)"/></g><g id="Group_794" transform="translate(26.981 0.135)"><path d="M190.1 307.526C191.201 304.376 192.827 301.435 194.907 298.826 196.382 296.861 198.064 295.06 199.925 293.456L199.925 294.089C199.925 294.089 193.896 299.826 192.675 303.862 192.675 303.862 198.651 295.816 204.758 292.815L205.184 292.124C205.184 292.124 207.494 291.513 207.918 292.496L209.539 292.389 209.539 293.689 209.22 293.822 209.114 292.814C209.114 292.814 206.245 292.826 202.314 296.643 198.383 300.46 192.089 307.366 192.089 307.366 192.089 307.366 193.443 304.18 198.783 299.254 204.123 294.328 206.67 292.894 206.67 292.894 206.67 292.894 206.112 292.442 204.89 293.266 199.476 297.491 194.519 302.27 190.1 307.526Z" id="Path_2067" transform="translate(-190.098 -291.937)"/></g><g id="Group_795" transform="translate(37.92 0)"><path d="M195.543 293.03C196.573 292.534 197.657 292.159 198.773 291.911 197.576 291.711 196.36 292.132 195.543 293.03Z" id="Path_2068" transform="translate(-195.543 -291.87)"/></g></g><g id="Group_797" transform="translate(4.936 2.43)"><path d="M218.643 326.384 218.643 320.836 218.165 321.136 217.687 321.436 217.687 327.336 228.087 327.336 205.559 339.066 183.035 327.336 193.429 327.336 193.429 325.01 192.953 324.853 192.475 324.696 192.475 326.379 179.124 326.379 205.336 340.027 205.555 340.142 231.99 326.379ZM193.426 299.443 193.426 294.035 209.37 294.035C209.535 293.868 209.697 293.71 209.86 293.557 210.043 293.388 210.222 293.228 210.398 293.079L192.471 293.079 192.471 298.579C192.608 298.704 192.771 298.85 192.949 299.013 193.1 299.144 193.255 299.286 193.425 299.443Z" id="Path_2069" transform="translate(-179.124 -293.079)"/></g><g id="Group_798" transform="translate(4.779 51.073)"><path d="M230.992 324.941 179.046 324.941 179.046 317.293 230.992 317.293ZM180 323.985 230.033 323.985 230.033 318.25 180 318.25Z" id="Path_2070" transform="translate(-179.046 -317.293)"/></g></g></g></svg>